<svg version="1.0" xmlns="http://www.w3.org/2000/svg" id="logo" class="logo"
 width="1000.000000pt" height="1000.000000pt" viewBox="0 0 1000.000000 1000.000000"
 preserveAspectRatio="xMidYMid meet">

<g transform="translate(0.000000,1000.000000) scale(0.100000,-0.100000)"
fill="currentColor" stroke="none">
<path d="M2985 9709 c-27 -5 -117 -16 -200 -24 -345 -35 -533 -74 -800 -165
-133 -46 -370 -160 -485 -235 -382 -247 -656 -580 -855 -1039 -90 -207 -168
-518 -214 -856 -31 -228 -32 -405 -29 -3550 3 -3045 4 -3167 21 -3220 68 -202
202 -314 391 -327 218 -15 394 112 459 333 8 29 13 642 17 2284 l5 2245 1535
0 1535 0 5 -1330 c5 -1237 6 -1334 23 -1389 35 -119 122 -232 211 -278 103
-53 49 -50 1066 -49 545 1 981 6 1030 12 458 53 815 218 1090 505 141 148 213
249 304 426 132 257 202 480 261 829 24 139 26 181 27 424 0 200 -4 298 -16
379 -9 60 -14 111 -12 113 4 4 79 -73 118 -122 14 -16 44 -62 67 -101 166
-282 232 -670 202 -1184 -14 -237 -29 -339 -77 -540 -188 -779 -567 -1206
-1199 -1349 -188 -42 -208 -43 -1475 -47 -796 -3 -1236 -8 -1275 -15 -215 -38
-365 -215 -365 -432 0 -100 51 -230 115 -292 32 -32 105 -84 139 -100 99 -45
85 -44 1372 -45 757 0 1253 4 1305 10 198 24 261 34 389 62 292 65 556 175
785 326 109 72 105 70 209 156 498 414 813 1067 946 1958 17 115 20 189 21
450 1 370 -12 536 -58 758 -8 41 -18 86 -20 100 -26 135 -114 375 -195 533
-140 272 -313 472 -593 684 -193 147 -542 290 -865 356 -318 65 -388 69 -1560
76 l-1055 6 -3 1393 -2 1392 1832 0 c1501 1 1844 3 1896 14 138 30 263 120
319 230 33 65 56 179 48 236 -28 193 -133 320 -319 384 l-61 21 -2980 1
c-1677 1 -3002 -2 -3030 -7z m1403 -1001 l-3 -123 -475 -1 c-470 -1 -581 -6
-805 -40 -456 -69 -830 -270 -1077 -579 -203 -255 -332 -576 -383 -953 -26
-198 -35 -361 -35 -668 l0 -304 -154 0 c-131 0 -155 2 -160 16 -16 43 4 1104
23 1229 6 39 16 102 22 140 29 185 95 405 166 554 121 253 327 476 553 598
135 73 353 149 500 174 36 6 85 15 110 20 25 5 155 17 289 28 134 11 246 22
249 25 3 4 270 6 594 6 l589 0 -3 -122z"/>
</g>
</svg>
